# xmcd
#
# Track frame offsets:
#   150
#   17588
#   46702
#   64571
#   84730
#   99413
#   117799
#   132834
#   157155
#   174317
#   195060
#   210079
#   229435
#   245157
#   262174
#
# Disc length: 3809 seconds
#
# Revision: 0
# Processed by: cddbd v1.5.2PL0 Copyright (c) Steve Scherf et al.
# Submitted via: uFREEDB ActiveX Control 1.5
#
DISCID=bf0edf0f
DTITLE=WALTER MORAIS - AO VIVO EM CRIUVA
DYEAR=1900
DGENRE=Country
TTITLE0=UM BAGUAL CORCOVEADOR
TTITLE1=TORDILHO NEGRO
TTITLE2=DOMANDO A CORDEONA
TTITLE3=CAMPEIRO DO RIO GRANDE
TTITLE4=NO ESTILO DE SANTIAGO
TTITLE5=ENTRANDO NO BORORE
TTITLE6=BOCHINCHO
TTITLE7=PONCHO MOLHADO
TTITLE8=AOS DOMINGOS
TTITLE9=DIA DE CHUVA
TTITLE10=CAMPERO NO MAS
TTITLE11=EL CARDAL
TTITLE12=REBELDIA
TTITLE13=NO PINDURICO DE UMA BAILANTA
TTITLE14=CRIADO EM GALPAO
EXTD=
EXTT0=
EXTT1=
EXTT2=
EXTT3=
EXTT4=
EXTT5=
EXTT6=
EXTT7=
EXTT8=
EXTT9=
EXTT10=
EXTT11=
EXTT12=
EXTT13=
EXTT14=
PLAYORDER=
